<svg width="36" height="64" viewBox="0 0 36 64" fill="none" xmlns="http://www.w3.org/2000/svg">
<mask id="mask0_5_93" style="mask-type:alpha" maskUnits="userSpaceOnUse" x="0" y="0" width="36" height="64">
<path fill-rule="evenodd" clip-rule="evenodd" d="M35.4668 0H0.000601708V55.2575C0.000200827 55.2794 0 55.3013 0 55.3233C0 59.6882 7.93937 63.2266 17.7331 63.2266C27.5268 63.2266 35.4662 59.6882 35.4662 55.3233C35.4662 55.3233 35.4662 55.3233 35.4662 55.3233H35.4668V0Z" fill="#C4C4C4"/>
</mask>
<g mask="url(#mask0_5_93)">
<ellipse cx="17.7331" cy="54.9939" rx="17.7331" ry="17.4532" fill="#FFC806"/>
<mask id="mask1_5_93" style="mask-type:alpha" maskUnits="userSpaceOnUse" x="-7" y="14" width="49" height="48">
<path fill-rule="evenodd" clip-rule="evenodd" d="M36.4022 31.8469C39.1049 28.0626 42.2989 21.9866 41.9442 16.3743C41.8506 14.8919 40.4038 13.9344 39.008 14.4423C34.125 16.2192 30.8753 21.0053 29.0595 25.1176C27.0115 24.2606 24.6213 23.7975 21.8372 23.7975C16.1627 23.7975 11.5497 25.7004 8.07129 28.7035C5.79875 25.3589 1.28528 20.6322 -4.09109 20.1281C-5.5782 19.9886 -6.69558 21.3627 -6.31387 22.8129C-4.93138 28.0652 -0.0904579 32.6776 3.11453 35.0028C1.26667 38.518 0.31837 42.512 0.31837 46.4491C0.31837 48.062 -0.0125732 49.1515 -0.300882 50.1007C-0.700887 51.4176 -1.01882 52.4643 -0.256994 54.2638C1.46912 58.3411 11.0096 61.2858 20.8016 61.2858C34.7834 61.2858 38.4079 57.6616 40.7094 53.8108C42.4212 50.9466 41.336 47.9797 40.5698 45.885C40.3059 45.1634 40.0798 44.5454 40.0189 44.0706C39.4176 39.3819 38.3015 35.1872 36.4022 31.8469Z" fill="#FEDC08"/>
</mask>
<g mask="url(#mask1_5_93)">
<path fill-rule="evenodd" clip-rule="evenodd" d="M36.4022 31.8468C39.3817 27.675 42.9583 20.7181 41.7193 14.6676C41.62 14.1826 41.1497 13.8734 40.6647 13.973C34.8512 15.1668 31.0734 20.5566 29.0595 25.1176C27.0115 24.2606 24.6213 23.7975 21.8372 23.7975C15.9856 23.7975 11.3032 25.5432 7.86994 28.412C5.16052 24.552 -0.354083 19.136 -6.69159 20.2262C-6.5392 26.4243 -0.780366 32.1326 2.94949 34.8821C1.51948 37.9796 0.860388 41.5149 1.00883 45.2032C1.05599 46.3751 0.83413 47.3142 0.612256 48.2534C0.298062 49.5833 -0.0161576 50.9133 0.433502 52.9047C1.4071 57.2166 11.5849 60.04 21.377 60.04C35.3588 60.04 40.134 55.5097 41.1697 51.7722C41.8871 49.1833 41.1725 47.3748 40.5866 45.8919C40.3266 45.2339 40.092 44.6401 40.019 44.0706C39.4177 39.3819 38.3015 35.1872 36.4022 31.8468Z" fill="#FFEC3D"/>
<ellipse cx="10.0998" cy="42.3718" rx="2.07133" ry="2.03864" fill="#0D0D0C"/>
<path d="M-9.2326 18.6916L2.83082 20.7388C2.83082 20.7388 -1.54858 21.0514 -3.55186 23.3739C-4.86058 25.5848 -4.16606 29.6045 -4.16606 29.6045L-9.2326 18.6916Z" fill="#191919"/>
<path d="M40.5653 29.4952L45.516 13.26L34.7971 8.2326L27.9869 18.6806C27.9869 18.6806 34.6037 18.1787 38.1533 20.9754C40.6385 23.7654 40.5653 29.4952 40.5653 29.4952Z" fill="#191919"/>
<ellipse cx="28.972" cy="42.1452" rx="2.07133" ry="2.03864" fill="#0D0D0C"/>
<path d="M41.5407 50.0938C41.3212 52.2904 39.5308 53.915 37.5417 53.7224C35.5526 53.5299 34.5784 51.5931 34.7979 49.3965C35.0174 47.1999 36.8078 45.5753 38.7969 45.7678C40.786 45.9604 41.7602 47.8972 41.5407 50.0938Z" fill="#FC4012"/>
<path d="M0.172331 50.3714C0.387374 52.5233 2.09568 54.1193 3.98795 53.9361C5.88021 53.7529 6.71347 51.7077 6.49843 49.5558C6.28338 47.4039 4.73076 45.904 2.8385 46.0872C0.946235 46.2703 -0.0427132 48.2195 0.172331 50.3714Z" fill="#FC4012"/>
<path fill-rule="evenodd" clip-rule="evenodd" d="M17.0042 48.7142C17.3855 48.7142 17.6947 49.0184 17.6947 49.3937C17.6947 50.1288 17.893 50.6807 18.1678 51.0319C18.4338 51.3718 18.7836 51.5456 19.1906 51.5456C19.3006 51.5456 19.5983 51.4932 19.8492 51.3323C20.0521 51.202 20.2111 51.0176 20.3479 50.8208C20.6704 50.3569 21.1929 50.3345 21.493 50.8132C21.614 51.0062 21.7569 51.1863 21.9843 51.3323C22.2351 51.4932 22.5329 51.5456 22.6429 51.5456C22.9558 51.5456 23.2862 51.3539 23.5738 50.912C23.8593 50.4733 24.0237 49.8934 24.0237 49.3937C24.0237 49.0184 24.3329 48.7142 24.7142 48.7142C25.0955 48.7142 25.4046 49.0184 25.4046 49.3937C25.4046 50.145 25.1689 50.9808 24.7366 51.6451C24.3063 52.3062 23.601 52.9047 22.6429 52.9047C22.2925 52.9047 21.7272 52.7898 21.2301 52.4707C21.122 52.4014 21.0164 52.3216 20.9167 52.2309C20.817 52.3216 20.7114 52.4014 20.6034 52.4707C20.1063 52.7898 19.5409 52.9047 19.1906 52.9047C18.3266 52.9047 17.5832 52.5122 17.0738 51.8611C16.5731 51.2213 16.3138 50.3575 16.3138 49.3937C16.3138 49.0184 16.6229 48.7142 17.0042 48.7142Z" fill="black"/>
</g>
</g>
</svg>
